<?xml version="1.0" standalone="no"?><!DOCTYPE svg PUBLIC "-//W3C//DTD SVG 1.1//EN" "http://www.w3.org/Graphics/SVG/1.1/DTD/svg11.dtd"><svg t="1723299875736" class="icon" viewBox="0 0 1024 1024" version="1.1" xmlns="http://www.w3.org/2000/svg" p-id="10369" xmlns:xlink="http://www.w3.org/1999/xlink" width="200" height="200"><path d="M926.464 390.0928h48.7936v48.7424h-48.7936zM926.464 341.3504h48.7936v48.7424h-48.7936zM926.464 292.5568h48.7936v48.7936h-48.7936zM926.464 243.8144h48.7936v48.7424h-48.7936z" fill="#012777" p-id="10370"></path><path d="M926.464 195.072h48.7936v48.7424h-48.7936zM926.464 146.2784h48.7936v48.7936h-48.7936zM926.464 97.536h48.7936v48.7424h-48.7936zM877.7216 487.6288h48.7424v48.7424h-48.7424zM877.7216 438.8352h48.7424v48.7936h-48.7424z" fill="#012777" p-id="10371"></path><path d="M877.7216 390.0928h48.7424v48.7424h-48.7424zM877.7216 341.3504h48.7424v48.7424h-48.7424zM877.7216 292.5568h48.7424v48.7936h-48.7424zM877.7216 243.8144h48.7424v48.7424h-48.7424z" fill="#DEE6FC" p-id="10372"></path><path d="M877.7216 195.072h48.7424v48.7424h-48.7424zM877.7216 146.2784h48.7424v48.7936h-48.7424zM877.7216 97.536h48.7424v48.7424h-48.7424z" fill="#DEE6FC" p-id="10373"></path><path d="M877.7216 48.7424h48.7424v48.7936h-48.7424zM828.928 731.4432h48.7936v48.7424h-48.7936zM828.928 682.6496h48.7936v48.7936h-48.7936zM828.928 536.3712h48.7936v48.7936h-48.7936z" fill="#012777" p-id="10374"></path><path d="M828.928 487.6288h48.7936v48.7424h-48.7936zM828.928 438.8352h48.7936v48.7936h-48.7936z" fill="#DEE6FC" p-id="10375"></path><path d="M828.928 390.0928h48.7936v48.7424h-48.7936zM828.928 341.3504h48.7936v48.7424h-48.7936zM828.928 292.5568h48.7936v48.7936h-48.7936zM828.928 243.8144h48.7936v48.7424h-48.7936z" fill="#d81e06" p-id="10376" data-spm-anchor-id="a313x.search_index.0.i30.527e3a81A8Vlwf" class="selected"></path><path d="M828.928 195.072h48.7936v48.7424h-48.7936zM828.928 146.2784h48.7936v48.7936h-48.7936z" fill="#d81e06" p-id="10377" data-spm-anchor-id="a313x.search_index.0.i31.527e3a81A8Vlwf" class="selected"></path><path d="M828.928 97.536h48.7936v48.7424h-48.7936z" fill="#DEE6FC" p-id="10378"></path><path d="M828.928 48.7424h48.7936v48.7936h-48.7936zM780.1856 780.1856h48.7424v48.7424h-48.7424z" fill="#012777" p-id="10379"></path><path d="M780.1856 731.4432h48.7424v48.7424h-48.7424zM780.1856 682.6496h48.7424v48.7936h-48.7424z" fill="#DEE6FC" p-id="10380"></path><path d="M780.1856 633.9072h48.7424v48.7424h-48.7424zM780.1856 585.1648h48.7424v48.7424h-48.7424z" fill="#012777" p-id="10381"></path><path d="M780.1856 536.3712h48.7424v48.7936h-48.7424z" fill="#DEE6FC" p-id="10382"></path><path d="M780.1856 487.6288h48.7424v48.7424h-48.7424zM780.1856 438.8352h48.7424v48.7936h-48.7424z" fill="#d81e06" p-id="10383" data-spm-anchor-id="a313x.search_index.0.i32.527e3a81A8Vlwf" class="selected"></path><path d="M780.1856 390.0928h48.7424v48.7424h-48.7424zM780.1856 341.3504h48.7424v48.7424h-48.7424zM780.1856 292.5568h48.7424v48.7936h-48.7424z" fill="#012777" p-id="10384"></path><path d="M780.1856 243.8144h48.7424v48.7424h-48.7424z" fill="#d81e06" p-id="10385" data-spm-anchor-id="a313x.search_index.0.i29.527e3a81A8Vlwf" class="selected"></path><path d="M780.1856 195.072h48.7424v48.7424h-48.7424zM780.1856 146.2784h48.7424v48.7936h-48.7424z" fill="#d81e06" p-id="10386" data-spm-anchor-id="a313x.search_index.0.i28.527e3a81A8Vlwf" class="selected"></path><path d="M780.1856 97.536h48.7424v48.7424h-48.7424z" fill="#DEE6FC" p-id="10387"></path><path d="M780.1856 48.7424h48.7424v48.7936h-48.7424zM731.4432 828.928h48.7424v48.7936h-48.7424z" fill="#012777" p-id="10388"></path><path d="M731.4432 780.1856h48.7424v48.7424h-48.7424z" fill="#DEE6FC" p-id="10389"></path><path d="M731.4432 731.4432h48.7424v48.7424h-48.7424zM731.4432 682.6496h48.7424v48.7936h-48.7424z" fill="#d81e06" p-id="10390" data-spm-anchor-id="a313x.search_index.0.i39.527e3a81A8Vlwf" class="selected"></path><path d="M731.4432 633.9072h48.7424v48.7424h-48.7424zM731.4432 585.1648h48.7424v48.7424h-48.7424z" fill="#DEE6FC" p-id="10391"></path><path d="M731.4432 536.3712h48.7424v48.7936h-48.7424zM731.4432 487.6288h48.7424v48.7424h-48.7424z" fill="#d81e06" p-id="10392" data-spm-anchor-id="a313x.search_index.0.i33.527e3a81A8Vlwf" class="selected"></path><path d="M731.4432 438.8352h48.7424v48.7936h-48.7424z" fill="#012777" p-id="10393"></path><path d="M731.4432 390.0928h48.7424v48.7424h-48.7424zM731.4432 341.3504h48.7424v48.7424h-48.7424zM731.4432 292.5568h48.7424v48.7936h-48.7424z" fill="#375AA4" p-id="10394"></path><path d="M731.4432 243.8144h48.7424v48.7424h-48.7424z" fill="#012777" p-id="10395"></path><path d="M731.4432 195.072h48.7424v48.7424h-48.7424zM731.4432 146.2784h48.7424v48.7936h-48.7424z" fill="#d81e06" p-id="10396" data-spm-anchor-id="a313x.search_index.0.i27.527e3a81A8Vlwf" class="selected"></path><path d="M731.4432 97.536h48.7424v48.7424h-48.7424z" fill="#DEE6FC" p-id="10397"></path><path d="M731.4432 48.7424h48.7424v48.7936h-48.7424zM682.6496 877.7216h48.7936v48.7424h-48.7936z" fill="#012777" p-id="10398"></path><path d="M682.6496 828.928h48.7936v48.7936h-48.7936z" fill="#DEE6FC" p-id="10399"></path><path d="M682.6496 780.1856h48.7936v48.7424h-48.7936z" fill="#d81e06" p-id="10400" data-spm-anchor-id="a313x.search_index.0.i38.527e3a81A8Vlwf" class="selected"></path><path d="M682.6496 731.4432h48.7936v48.7424h-48.7936zM682.6496 682.6496h48.7936v48.7936h-48.7936zM682.6496 633.9072h48.7936v48.7424h-48.7936zM682.6496 585.1648h48.7936v48.7424h-48.7936zM682.6496 536.3712h48.7936v48.7936h-48.7936zM682.6496 487.6288h48.7936v48.7424h-48.7936z" fill="#d81e06" p-id="10401" data-spm-anchor-id="a313x.search_index.0.i34.527e3a81A8Vlwf" class="selected"></path><path d="M682.6496 438.8352h48.7936v48.7936h-48.7936z" fill="#012777" p-id="10402"></path><path d="M682.6496 390.0928h48.7936v48.7424h-48.7936zM682.6496 341.3504h48.7936v48.7424h-48.7936zM682.6496 292.5568h48.7936v48.7936h-48.7936z" fill="#375AA4" p-id="10403"></path><path d="M682.6496 243.8144h48.7936v48.7424h-48.7936z" fill="#A2D8EA" p-id="10404"></path><path d="M682.6496 195.072h48.7936v48.7424h-48.7936z" fill="#012777" p-id="10405"></path><path d="M682.6496 146.2784h48.7936v48.7936h-48.7936z" fill="#d81e06" p-id="10406" data-spm-anchor-id="a313x.search_index.0.i26.527e3a81A8Vlwf" class="selected"></path><path d="M682.6496 97.536h48.7936v48.7424h-48.7936z" fill="#DEE6FC" p-id="10407"></path><path d="M682.6496 48.7424h48.7936v48.7936h-48.7936zM633.9072 926.464h48.7424v48.7936h-48.7424z" fill="#012777" p-id="10408"></path><path d="M633.9072 877.7216h48.7424v48.7424h-48.7424z" fill="#DEE6FC" p-id="10409"></path><path d="M633.9072 828.928h48.7424v48.7936h-48.7424zM633.9072 780.1856h48.7424v48.7424h-48.7424z" fill="#d81e06" p-id="10410" data-spm-anchor-id="a313x.search_index.0.i37.527e3a81A8Vlwf" class="selected"></path><path d="M633.9072 731.4432h48.7424v48.7424h-48.7424zM633.9072 682.6496h48.7424v48.7936h-48.7424zM633.9072 633.9072h48.7424v48.7424h-48.7424zM633.9072 585.1648h48.7424v48.7424h-48.7424zM633.9072 536.3712h48.7424v48.7936h-48.7424zM633.9072 487.6288h48.7424v48.7424h-48.7424z" fill="#d81e06" p-id="10411" data-spm-anchor-id="a313x.search_index.0.i35.527e3a81A8Vlwf" class="selected"></path><path d="M633.9072 438.8352h48.7424v48.7936h-48.7424z" fill="#012777" p-id="10412"></path><path d="M633.9072 390.0928h48.7424v48.7424h-48.7424zM633.9072 341.3504h48.7424v48.7424h-48.7424z" fill="#375AA4" p-id="10413"></path><path d="M633.9072 292.5568h48.7424v48.7936h-48.7424zM633.9072 243.8144h48.7424v48.7424h-48.7424z" fill="#A2D8EA" p-id="10414"></path><path d="M633.9072 195.072h48.7424v48.7424h-48.7424z" fill="#012777" p-id="10415"></path><path d="M633.9072 146.2784h48.7424v48.7936h-48.7424z" fill="#d81e06" p-id="10416" data-spm-anchor-id="a313x.search_index.0.i25.527e3a81A8Vlwf" class="selected"></path><path d="M633.9072 97.536h48.7424v48.7424h-48.7424z" fill="#DEE6FC" p-id="10417"></path><path d="M633.9072 48.7424h48.7424v48.7936h-48.7424zM585.1648 926.464h48.7424v48.7936h-48.7424z" fill="#012777" p-id="10418"></path><path d="M585.1648 877.7216h48.7424v48.7424h-48.7424zM585.1648 828.928h48.7424v48.7936h-48.7424z" fill="#DEE6FC" p-id="10419"></path><path d="M585.1648 780.1856h48.7424v48.7424h-48.7424z" fill="#012777" p-id="10420"></path><path d="M585.1648 731.4432h48.7424v48.7424h-48.7424zM585.1648 682.6496h48.7424v48.7936h-48.7424z" fill="#DEE6FC" p-id="10421"></path><path d="M585.1648 633.9072h48.7424v48.7424h-48.7424zM585.1648 585.1648h48.7424v48.7424h-48.7424zM585.1648 536.3712h48.7424v48.7936h-48.7424zM585.1648 487.6288h48.7424v48.7424h-48.7424zM585.1648 438.8352h48.7424v48.7936h-48.7424z" fill="#d81e06" p-id="10422" data-spm-anchor-id="a313x.search_index.0.i36.527e3a81A8Vlwf" class="selected"></path><path d="M585.1648 390.0928h48.7424v48.7424h-48.7424z" fill="#012777" p-id="10423"></path><path d="M585.1648 341.3504h48.7424v48.7424h-48.7424zM585.1648 292.5568h48.7424v48.7936h-48.7424zM585.1648 243.8144h48.7424v48.7424h-48.7424z" fill="#A2D8EA" p-id="10424"></path><path d="M585.1648 195.072h48.7424v48.7424h-48.7424z" fill="#012777" p-id="10425"></path><path d="M585.1648 146.2784h48.7424v48.7936h-48.7424z" fill="#d81e06" p-id="10426" data-spm-anchor-id="a313x.search_index.0.i24.527e3a81A8Vlwf" class="selected"></path><path d="M585.1648 97.536h48.7424v48.7424h-48.7424z" fill="#DEE6FC" p-id="10427"></path><path d="M585.1648 48.7424h48.7424v48.7936h-48.7424zM536.3712 877.7216h48.7936v48.7424h-48.7936zM536.3712 828.928h48.7936v48.7936h-48.7936zM536.3712 731.4432h48.7936v48.7424h-48.7936zM536.3712 682.6496h48.7936v48.7936h-48.7936z" fill="#012777" p-id="10428"></path><path d="M536.3712 633.9072h48.7936v48.7424h-48.7936z" fill="#DEE6FC" p-id="10429"></path><path d="M536.3712 585.1648h48.7936v48.7424h-48.7936zM536.3712 536.3712h48.7936v48.7936h-48.7936zM536.3712 487.6288h48.7936v48.7424h-48.7936zM536.3712 438.8352h48.7936v48.7936h-48.7936zM536.3712 390.0928h48.7936v48.7424h-48.7936z" fill="#d81e06" p-id="10430" data-spm-anchor-id="a313x.search_index.0.i21.527e3a81A8Vlwf" class="selected"></path><path d="M536.3712 341.3504h48.7936v48.7424h-48.7936zM536.3712 292.5568h48.7936v48.7936h-48.7936zM536.3712 243.8144h48.7936v48.7424h-48.7936z" fill="#012777" p-id="10431"></path><path d="M536.3712 195.072h48.7936v48.7424h-48.7936z" fill="#d81e06" p-id="10432" data-spm-anchor-id="a313x.search_index.0.i23.527e3a81A8Vlwf" class="selected"></path><path d="M536.3712 146.2784h48.7936v48.7936h-48.7936z" fill="#DEE6FC" p-id="10433"></path><path d="M536.3712 97.536h48.7936v48.7424h-48.7936zM487.6288 731.4432h48.7424v48.7424h-48.7424z" fill="#012777" p-id="10434"></path><path d="M487.6288 682.6496h48.7424v48.7936h-48.7424z" fill="#A2D8EA" p-id="10435"></path><path d="M487.6288 633.9072h48.7424v48.7424h-48.7424z" fill="#012777" p-id="10436"></path><path d="M487.6288 585.1648h48.7424v48.7424h-48.7424z" fill="#DEE6FC" p-id="10437"></path><path d="M487.6288 536.3712h48.7424v48.7936h-48.7424zM487.6288 487.6288h48.7424v48.7424h-48.7424zM487.6288 438.8352h48.7424v48.7936h-48.7424zM487.6288 390.0928h48.7424v48.7424h-48.7424zM487.6288 341.3504h48.7424v48.7424h-48.7424zM487.6288 292.5568h48.7424v48.7936h-48.7424zM487.6288 243.8144h48.7424v48.7424h-48.7424z" fill="#d81e06" p-id="10438" data-spm-anchor-id="a313x.search_index.0.i20.527e3a81A8Vlwf" class="selected"></path><path d="M487.6288 195.072h48.7424v48.7424h-48.7424z" fill="#d81e06" p-id="10439" data-spm-anchor-id="a313x.search_index.0.i22.527e3a81A8Vlwf" class="selected"></path><path d="M487.6288 146.2784h48.7424v48.7936h-48.7424z" fill="#DEE6FC" p-id="10440"></path><path d="M487.6288 97.536h48.7424v48.7424h-48.7424zM438.8352 731.4432h48.7936v48.7424h-48.7936z" fill="#012777" p-id="10441"></path><path d="M438.8352 682.6496h48.7936v48.7936h-48.7936z" fill="#375AA4" p-id="10442"></path><path d="M438.8352 633.9072h48.7936v48.7424h-48.7936z" fill="#A2D8EA" p-id="10443"></path><path d="M438.8352 585.1648h48.7936v48.7424h-48.7936z" fill="#012777" p-id="10444"></path><path d="M438.8352 536.3712h48.7936v48.7936h-48.7936z" fill="#DEE6FC" p-id="10445"></path><path d="M438.8352 487.6288h48.7936v48.7424h-48.7936zM438.8352 438.8352h48.7936v48.7936h-48.7936zM438.8352 390.0928h48.7936v48.7424h-48.7936zM438.8352 341.3504h48.7936v48.7424h-48.7936zM438.8352 292.5568h48.7936v48.7936h-48.7936zM438.8352 243.8144h48.7936v48.7424h-48.7936z" fill="#d81e06" p-id="10446" data-spm-anchor-id="a313x.search_index.0.i19.527e3a81A8Vlwf" class="selected"></path><path d="M438.8352 195.072h48.7936v48.7424h-48.7936z" fill="#DEE6FC" p-id="10447"></path><path d="M438.8352 146.2784h48.7936v48.7936h-48.7936zM390.0928 828.928h48.7424v48.7936h-48.7424zM390.0928 682.6496h48.7424v48.7936h-48.7424z" fill="#012777" p-id="10448"></path><path d="M390.0928 633.9072h48.7424v48.7424h-48.7424z" fill="#375AA4" p-id="10449"></path><path d="M390.0928 585.1648h48.7424v48.7424h-48.7424z" fill="#A2D8EA" p-id="10450"></path><path d="M390.0928 536.3712h48.7424v48.7936h-48.7424z" fill="#012777" p-id="10451"></path><path d="M390.0928 487.6288h48.7424v48.7424h-48.7424z" fill="#DEE6FC" p-id="10452"></path><path d="M390.0928 438.8352h48.7424v48.7936h-48.7424zM390.0928 390.0928h48.7424v48.7424h-48.7424zM390.0928 341.3504h48.7424v48.7424h-48.7424zM390.0928 292.5568h48.7424v48.7936h-48.7424z" fill="#d81e06" p-id="10453" data-spm-anchor-id="a313x.search_index.0.i18.527e3a81A8Vlwf" class="selected"></path><path d="M390.0928 243.8144h48.7424v48.7424h-48.7424z" fill="#DEE6FC" p-id="10454"></path><path d="M390.0928 195.072h48.7424v48.7424h-48.7424zM341.3504 877.7216h48.7424v48.7424h-48.7424zM341.3504 633.9072h48.7424v48.7424h-48.7424z" fill="#012777" p-id="10455"></path><path d="M341.3504 585.1648h48.7424v48.7424h-48.7424z" fill="#375AA4" p-id="10456"></path><path d="M341.3504 536.3712h48.7424v48.7936h-48.7424z" fill="#A2D8EA" p-id="10457"></path><path d="M341.3504 487.6288h48.7424v48.7424h-48.7424z" fill="#012777" p-id="10458"></path><path d="M341.3504 438.8352h48.7424v48.7936h-48.7424z" fill="#DEE6FC" p-id="10459"></path><path d="M341.3504 390.0928h48.7424v48.7424h-48.7424zM341.3504 341.3504h48.7424v48.7424h-48.7424zM341.3504 292.5568h48.7424v48.7936h-48.7424z" fill="#d81e06" p-id="10460" data-spm-anchor-id="a313x.search_index.0.i17.527e3a81A8Vlwf" class="selected"></path><path d="M341.3504 243.8144h48.7424v48.7424h-48.7424z" fill="#DEE6FC" p-id="10461"></path><path d="M341.3504 195.072h48.7424v48.7424h-48.7424zM292.5568 926.464h48.7936v48.7936h-48.7936zM292.5568 780.1856h48.7936v48.7424h-48.7936z" fill="#012777" p-id="10462"></path><path d="M292.5568 731.4432h48.7936v48.7424h-48.7936zM292.5568 585.1648h48.7936v48.7424h-48.7936z" fill="#012777" p-id="10463"></path><path d="M292.5568 536.3712h48.7936v48.7936h-48.7936z" fill="#375AA4" p-id="10464"></path><path d="M292.5568 487.6288h48.7936v48.7424h-48.7936z" fill="#A2D8EA" p-id="10465"></path><path d="M292.5568 438.8352h48.7936v48.7936h-48.7936z" fill="#012777" p-id="10466"></path><path d="M292.5568 390.0928h48.7936v48.7424h-48.7936z" fill="#DEE6FC" p-id="10467"></path><path d="M292.5568 341.3504h48.7936v48.7424h-48.7936zM292.5568 292.5568h48.7936v48.7936h-48.7936zM292.5568 243.8144h48.7936v48.7424h-48.7936z" fill="#d81e06" p-id="10468" data-spm-anchor-id="a313x.search_index.0.i16.527e3a81A8Vlwf" class="selected"></path><path d="M292.5568 195.072h48.7936v48.7424h-48.7936z" fill="#DEE6FC" p-id="10469"></path><path d="M292.5568 146.2784h48.7936v48.7936h-48.7936zM243.8144 828.928h48.7424v48.7936h-48.7424z" fill="#012777" p-id="10470"></path><path d="M243.8144 780.1856h48.7424v48.7424h-48.7424z" fill="#DEE6FC" p-id="10471"></path><path d="M243.8144 731.4432h48.7424v48.7424h-48.7424z" fill="#d81e06" p-id="10472" data-spm-anchor-id="a313x.search_index.0.i40.527e3a81A8Vlwf" class="selected"></path><path d="M243.8144 682.6496h48.7424v48.7936h-48.7424zM243.8144 536.3712h48.7424v48.7936h-48.7424zM243.8144 487.6288h48.7424v48.7424h-48.7424zM243.8144 438.8352h48.7424v48.7936h-48.7424z" fill="#012777" p-id="10473"></path><path d="M243.8144 390.0928h48.7424v48.7424h-48.7424z" fill="#DEE6FC" p-id="10474"></path><path d="M243.8144 341.3504h48.7424v48.7424h-48.7424zM243.8144 292.5568h48.7424v48.7936h-48.7424zM243.8144 243.8144h48.7424v48.7424h-48.7424z" fill="#d81e06" p-id="10475" data-spm-anchor-id="a313x.search_index.0.i15.527e3a81A8Vlwf" class="selected"></path><path d="M243.8144 195.072h48.7424v48.7424h-48.7424z" fill="#DEE6FC" p-id="10476"></path><path d="M243.8144 146.2784h48.7424v48.7936h-48.7424zM195.072 877.7216h48.7424v48.7424H195.072z" fill="#012777" p-id="10477"></path><path d="M195.072 828.928h48.7424v48.7936H195.072z" fill="#DEE6FC" p-id="10478"></path><path d="M195.072 780.1856h48.7424v48.7424H195.072z" fill="#d81e06" p-id="10479" data-spm-anchor-id="a313x.search_index.0.i41.527e3a81A8Vlwf" class="selected"></path><path d="M195.072 731.4432h48.7424v48.7424H195.072z" fill="#DEE6FC" p-id="10480"></path><path d="M195.072 682.6496h48.7424v48.7936H195.072zM195.072 390.0928h48.7424v48.7424H195.072z" fill="#012777" p-id="10481"></path><path d="M195.072 341.3504h48.7424v48.7424H195.072zM195.072 292.5568h48.7424v48.7936H195.072z" fill="#d81e06" p-id="10482" data-spm-anchor-id="a313x.search_index.0.i14.527e3a81A8Vlwf" class="selected"></path><path d="M195.072 243.8144h48.7424v48.7424H195.072z" fill="#DEE6FC" p-id="10483"></path><path d="M195.072 195.072h48.7424v48.7424H195.072zM146.2784 926.464h48.7936v48.7936h-48.7936z" fill="#012777" p-id="10484"></path><path d="M146.2784 877.7216h48.7936v48.7424h-48.7936z" fill="#DEE6FC" p-id="10485"></path><path d="M146.2784 828.928h48.7936v48.7936h-48.7936z" fill="#d81e06" p-id="10486" data-spm-anchor-id="a313x.search_index.0.i42.527e3a81A8Vlwf" class="selected"></path><path d="M146.2784 780.1856h48.7936v48.7424h-48.7936z" fill="#DEE6FC" p-id="10487"></path><path d="M146.2784 731.4432h48.7936v48.7424h-48.7936zM146.2784 585.1648h48.7936v48.7424h-48.7936zM146.2784 438.8352h48.7936v48.7936h-48.7936z" fill="#012777" p-id="10488"></path><path d="M146.2784 390.0928h48.7936v48.7424h-48.7936z" fill="#DEE6FC" p-id="10489"></path><path d="M146.2784 341.3504h48.7936v48.7424h-48.7936z" fill="#d81e06" p-id="10490" data-spm-anchor-id="a313x.search_index.0.i13.527e3a81A8Vlwf" class="selected"></path><path d="M146.2784 292.5568h48.7936v48.7936h-48.7936z" fill="#DEE6FC" p-id="10491"></path><path d="M146.2784 243.8144h48.7936v48.7424h-48.7936zM97.536 926.464h48.7424v48.7936h-48.7424z" fill="#012777" p-id="10492"></path><path d="M97.536 877.7216h48.7424v48.7424h-48.7424z" fill="#d81e06" p-id="10493" data-spm-anchor-id="a313x.search_index.0.i43.527e3a81A8Vlwf" class="selected"></path><path d="M97.536 828.928h48.7424v48.7936h-48.7424z" fill="#DEE6FC" p-id="10494"></path><path d="M97.536 780.1856h48.7424v48.7424h-48.7424zM97.536 633.9072h48.7424v48.7424h-48.7424zM97.536 438.8352h48.7424v48.7936h-48.7424z" fill="#012777" p-id="10495"></path><path d="M97.536 390.0928h48.7424v48.7424h-48.7424zM97.536 341.3504h48.7424v48.7424h-48.7424z" fill="#DEE6FC" p-id="10496"></path><path d="M97.536 292.5568h48.7424v48.7936h-48.7424zM48.7424 877.7216h48.7936v48.7424H48.7424zM48.7424 828.928h48.7936v48.7936H48.7424zM48.7424 682.6496h48.7936v48.7936H48.7424zM48.7424 390.0928h48.7936v48.7424H48.7424zM48.7424 341.3504h48.7936v48.7424H48.7424z" fill="#012777" p-id="10497"></path></svg>